<svg width="2465" height="1757" xmlns="http://www.w3.org/2000/svg" xmlns:xlink="http://www.w3.org/1999/xlink" xml:space="preserve" overflow="hidden"><g transform="translate(-1466 -250)"><path d="M3753.5 957 3283.5 957" stroke="#000000" stroke-width="6.875" stroke-miterlimit="8" fill="none" fill-rule="evenodd"/><path d="M2028 1311.5 2028 1378.5" stroke="#000000" stroke-width="6.875" stroke-miterlimit="8" fill="none" fill-rule="evenodd"/><path d="M1837.5 1087.5 1837.5 1232.5 1870.5 1232.5" stroke="#000000" stroke-width="6.875" stroke-miterlimit="8" fill="none" fill-rule="evenodd"/><path d="M1646 1760.5 1646 1826.5" stroke="#000000" stroke-width="6.875" stroke-miterlimit="8" fill="none" fill-rule="evenodd"/><path d="M1837.5 1087.5 1837.5 1569.33 1645.5 1569.33 1645.5 1602.5" stroke="#000000" stroke-width="6.875" stroke-miterlimit="8" fill="none" fill-rule="evenodd"/><path d="M2028 1760.5 2028 1826.5" stroke="#000000" stroke-width="6.875" stroke-miterlimit="8" fill="none" fill-rule="evenodd"/><path d="M1837.5 1087.5 1837.5 1569.33 2028.5 1569.33 2028.5 1602.5" stroke="#000000" stroke-width="6.875" stroke-miterlimit="8" fill="none" fill-rule="evenodd"/><path d="M2296.5 419.5 2296.5 911.39 1818.5 911.39 1818.5 934.5" stroke="#000000" stroke-width="6.875" stroke-miterlimit="8" fill="none" fill-rule="evenodd"/><path d="M2411 1087.5 2411 1153.5" stroke="#000000" stroke-width="6.875" stroke-miterlimit="8" fill="none" fill-rule="evenodd"/><path d="M2296.5 419.5 2296.5 911.39 2375.5 911.39 2375.5 934.5" stroke="#000000" stroke-width="6.875" stroke-miterlimit="8" fill="none" fill-rule="evenodd"/><path d="M2793 1087.5 2793 1153.5" stroke="#000000" stroke-width="6.875" stroke-miterlimit="8" fill="none" fill-rule="evenodd"/><rect x="2138.5" y="261.5" width="316" height="158" stroke="#000000" stroke-width="6.875" stroke-miterlimit="8" fill="#00B0F0"/><rect x="2138.5" y="261.5" width="316" height="158" stroke="#000000" stroke-width="3.4375" stroke-linejoin="round" stroke-miterlimit="10" fill="none"/><text font-family="Assistant,Assistant_MSFontService,sans-serif" font-weight="700" font-size="60" direction="rtl" writing-mode="rl-tb" transform="matrix(1 0 0 1 2226.35 325)" x="138.646">מפקד</text><text font-family="Assistant,Assistant_MSFontService,sans-serif" font-weight="700" font-size="60" direction="rtl" writing-mode="rl-tb" transform="matrix(1 0 0 1 2214.32 325)" x="12.0313"> </text><text font-family="Assistant,Assistant_MSFontService,sans-serif" font-weight="700" font-size="60" direction="rtl" writing-mode="rl-tb" transform="matrix(1 0 0 1 2281.05 389)" x="96.8229">מלכ</text><text font-family="Assistant,Assistant_MSFontService,sans-serif" font-weight="700" font-size="60" transform="matrix(1 0 0 1 2250.14 389)">"</text><text font-family="Assistant,Assistant_MSFontService,sans-serif" font-weight="700" font-size="60" direction="rtl" writing-mode="rl-tb" transform="matrix(1 0 0 1 2213.45 389)" x="36.6667">א</text><rect x="2638.5" y="927.5" width="316" height="158" stroke="#000000" stroke-width="6.875" stroke-miterlimit="8" fill="#00B0F0"/><rect x="2634.5" y="1153.5" width="316" height="158" stroke="#000000" stroke-width="6.875" stroke-miterlimit="8" fill="#FFFFFF"/><text font-family="Assistant,Assistant_MSFontService,sans-serif" font-weight="700" font-size="60" direction="rtl" writing-mode="rl-tb" transform="matrix(1 0 0 1 2858.09 1255)" x="34.375">ע</text><text font-family="Assistant,Assistant_MSFontService,sans-serif" font-weight="700" font-size="60" transform="matrix(1 0 0 1 2828.89 1255)">' </text><text font-family="Assistant,Assistant_MSFontService,sans-serif" font-weight="700" font-size="60" direction="rtl" writing-mode="rl-tb" transform="matrix(1 0 0 1 2759.54 1255)" x="69.3229">קה</text><text font-family="Assistant,Assistant_MSFontService,sans-serif" font-weight="700" font-size="60" transform="matrix(1 0 0 1 2728.63 1255)">"</text><text font-family="Assistant,Assistant_MSFontService,sans-serif" font-weight="700" font-size="60" direction="rtl" writing-mode="rl-tb" transform="matrix(1 0 0 1 2692.51 1255)" x="36.0938">ס</text><rect x="2252.5" y="929.5" width="316" height="158" stroke="#000000" stroke-width="6.875" stroke-miterlimit="8" fill="#00B0F0"/><text font-family="Assistant,Assistant_MSFontService,sans-serif" font-weight="700" font-size="60" direction="rtl" writing-mode="rl-tb" transform="matrix(1 0 0 1 2408.98 1025)" x="69.8958">קט</text><text font-family="Assistant,Assistant_MSFontService,sans-serif" font-weight="700" font-size="60" transform="matrix(1 0 0 1 2378.07 1025)">"</text><text font-family="Assistant,Assistant_MSFontService,sans-serif" font-weight="700" font-size="60" direction="rtl" writing-mode="rl-tb" transform="matrix(1 0 0 1 2341.38 1025)" x="36.6667">א</text><rect x="2252.5" y="1153.5" width="316" height="158" stroke="#000000" stroke-width="6.875" stroke-miterlimit="8" fill="#FFFFFF"/><text font-family="Assistant,Assistant_MSFontService,sans-serif" font-weight="700" font-size="60" direction="rtl" writing-mode="rl-tb" transform="matrix(1 0 0 1 2471.88 1246)" x="34.375">ע</text><text font-family="Assistant,Assistant_MSFontService,sans-serif" font-weight="700" font-size="60" transform="matrix(1 0 0 1 2442.68 1246)">' </text><text font-family="Assistant,Assistant_MSFontService,sans-serif" font-weight="700" font-size="60" direction="rtl" writing-mode="rl-tb" transform="matrix(1 0 0 1 2372.76 1246)" x="69.8958">קט</text><text font-family="Assistant,Assistant_MSFontService,sans-serif" font-weight="700" font-size="60" transform="matrix(1 0 0 1 2341.85 1246)">"</text><text font-family="Assistant,Assistant_MSFontService,sans-serif" font-weight="700" font-size="60" direction="rtl" writing-mode="rl-tb" transform="matrix(1 0 0 1 2305.16 1246)" x="36.6667">א</text><rect x="1679.5" y="929.5" width="316" height="158" stroke="#000000" stroke-width="6.875" stroke-miterlimit="8" fill="#00B0F0"/><text font-family="Assistant,Assistant_MSFontService,sans-serif" font-weight="700" font-size="60" direction="rtl" writing-mode="rl-tb" transform="matrix(1 0 0 1 1810.54 992)" x="138.646">מפקד</text><text font-family="Assistant,Assistant_MSFontService,sans-serif" font-weight="700" font-size="60" direction="rtl" writing-mode="rl-tb" transform="matrix(1 0 0 1 1798.51 992)" x="12.0313"> </text><text font-family="Assistant,Assistant_MSFontService,sans-serif" font-weight="700" font-size="60" direction="rtl" writing-mode="rl-tb" transform="matrix(1 0 0 1 1724.03 992)" x="74.4792">תא</text><text font-family="Assistant,Assistant_MSFontService,sans-serif" font-weight="700" font-size="60" direction="rtl" writing-mode="rl-tb" transform="matrix(1 0 0 1 1712 992)" x="12.0313"> </text><text font-family="Assistant,Assistant_MSFontService,sans-serif" font-weight="700" font-size="60" direction="rtl" writing-mode="rl-tb" transform="matrix(1 0 0 1 1801.94 1056)" x="115.729">משא</text><text font-family="Assistant,Assistant_MSFontService,sans-serif" font-weight="700" font-size="60" transform="matrix(1 0 0 1 1771.03 1056)">"</text><text font-family="Assistant,Assistant_MSFontService,sans-serif" font-weight="700" font-size="60" direction="rtl" writing-mode="rl-tb" transform="matrix(1 0 0 1 1755.54 1056)" x="15.4688">ן</text><rect x="1870.5" y="1602.5" width="316" height="158" stroke="#000000" stroke-width="6.875" stroke-miterlimit="8" fill="#FFFFFF"/><text font-family="Assistant,Assistant_MSFontService,sans-serif" font-weight="700" font-size="60" direction="rtl" writing-mode="rl-tb" transform="matrix(1 0 0 1 2063.25 1698)" x="99.1146">קצין</text><text font-family="Assistant,Assistant_MSFontService,sans-serif" font-weight="700" font-size="60" direction="rtl" writing-mode="rl-tb" transform="matrix(1 0 0 1 2051.22 1698)" x="12.0313"> </text><text font-family="Assistant,Assistant_MSFontService,sans-serif" font-weight="700" font-size="60" direction="rtl" writing-mode="rl-tb" transform="matrix(1 0 0 1 1976.17 1698)" x="75.0521">אנו</text><text font-family="Assistant,Assistant_MSFontService,sans-serif" font-weight="700" font-size="60" transform="matrix(1 0 0 1 1945.25 1698)">"</text><text font-family="Assistant,Assistant_MSFontService,sans-serif" font-weight="700" font-size="60" direction="rtl" writing-mode="rl-tb" transform="matrix(1 0 0 1 1909.71 1698)" x="35.5208">ח</text><rect x="1870.5" y="1826.5" width="316" height="158" stroke="#000000" stroke-width="6.875" stroke-miterlimit="8" fill="#FFFFFF"/><text font-family="Assistant,Assistant_MSFontService,sans-serif" font-weight="700" font-size="60" direction="rtl" writing-mode="rl-tb" transform="matrix(1 0 0 1 2006.58 1890)" x="106.562">סמב</text><text font-family="Assistant,Assistant_MSFontService,sans-serif" font-weight="700" font-size="60" transform="matrix(1 0 0 1 1975.67 1890)">"</text><text font-family="Assistant,Assistant_MSFontService,sans-serif" font-weight="700" font-size="60" direction="rtl" writing-mode="rl-tb" transform="matrix(1 0 0 1 1942.41 1890)" x="33.2292">צ</text><text font-family="Assistant,Assistant_MSFontService,sans-serif" font-weight="700" font-size="60" direction="rtl" writing-mode="rl-tb" transform="matrix(1 0 0 1 1930.38 1890)" x="12.0313"> </text><text font-family="Assistant,Assistant_MSFontService,sans-serif" font-weight="700" font-size="60" direction="rtl" writing-mode="rl-tb" transform="matrix(1 0 0 1 2058.42 1954)" x="75.0521">אנו</text><text font-family="Assistant,Assistant_MSFontService,sans-serif" font-weight="700" font-size="60" transform="matrix(1 0 0 1 2027.5 1954)">"</text><text font-family="Assistant,Assistant_MSFontService,sans-serif" font-weight="700" font-size="60" direction="rtl" writing-mode="rl-tb" transform="matrix(1 0 0 1 1991.96 1954)" x="35.5208">ח</text><text font-family="Assistant,Assistant_MSFontService,sans-serif" font-weight="700" font-size="60" direction="rtl" writing-mode="rl-tb" transform="matrix(1 0 0 1 1979.93 1954)" x="12.0313"> </text><text font-family="Assistant,Assistant_MSFontService,sans-serif" font-weight="700" font-size="60" transform="matrix(1 0 0 1 1922.09 1954)">*</text><text font-family="Assistant,Assistant_MSFontService,sans-serif" font-weight="700" font-size="60" transform="matrix(1 0 0 1 1949.01 1954)">2</text><rect x="1487.5" y="1602.5" width="316" height="158" stroke="#000000" stroke-width="6.875" stroke-miterlimit="8" fill="#FFFFFF"/><text font-family="Assistant,Assistant_MSFontService,sans-serif" font-weight="700" font-size="60" direction="rtl" writing-mode="rl-tb" transform="matrix(1 0 0 1 1662.22 1698)" x="99.1146">קצין</text><text font-family="Assistant,Assistant_MSFontService,sans-serif" font-weight="700" font-size="60" direction="rtl" writing-mode="rl-tb" transform="matrix(1 0 0 1 1650.19 1698)" x="12.0313"> </text><text font-family="Assistant,Assistant_MSFontService,sans-serif" font-weight="700" font-size="60" direction="rtl" writing-mode="rl-tb" transform="matrix(1 0 0 1 1587.74 1698)" x="62.4479">פר</text><text font-family="Assistant,Assistant_MSFontService,sans-serif" font-weight="700" font-size="60" transform="matrix(1 0 0 1 1556.83 1698)">"</text><text font-family="Assistant,Assistant_MSFontService,sans-serif" font-weight="700" font-size="60" direction="rtl" writing-mode="rl-tb" transform="matrix(1 0 0 1 1521.28 1698)" x="35.5208">ח</text><rect x="1487.5" y="1826.5" width="316" height="158" stroke="#000000" stroke-width="6.875" stroke-miterlimit="8" fill="#FFFFFF"/><text font-family="Assistant,Assistant_MSFontService,sans-serif" font-weight="700" font-size="60" direction="rtl" writing-mode="rl-tb" transform="matrix(1 0 0 1 1709.32 1922)" x="79.0625">מש</text><text font-family="Assistant,Assistant_MSFontService,sans-serif" font-weight="700" font-size="60" transform="matrix(1 0 0 1 1678.41 1922)">"</text><text font-family="Assistant,Assistant_MSFontService,sans-serif" font-weight="700" font-size="60" direction="rtl" writing-mode="rl-tb" transform="matrix(1 0 0 1 1643.44 1922)" x="34.9479">ק</text><text font-family="Assistant,Assistant_MSFontService,sans-serif" font-weight="700" font-size="60" direction="rtl" writing-mode="rl-tb" transform="matrix(1 0 0 1 1631.41 1922)" x="12.0313"> </text><text font-family="Assistant,Assistant_MSFontService,sans-serif" font-weight="700" font-size="60" direction="rtl" writing-mode="rl-tb" transform="matrix(1 0 0 1 1568.96 1922)" x="62.4479">פר</text><text font-family="Assistant,Assistant_MSFontService,sans-serif" font-weight="700" font-size="60" transform="matrix(1 0 0 1 1538.04 1922)">"</text><text font-family="Assistant,Assistant_MSFontService,sans-serif" font-weight="700" font-size="60" direction="rtl" writing-mode="rl-tb" transform="matrix(1 0 0 1 1502.5 1922)" x="35.5208">ח</text><rect x="1870.5" y="1153.5" width="316" height="158" stroke="#000000" stroke-width="6.875" stroke-miterlimit="8" fill="#FFFFFF"/><text font-family="Assistant,Assistant_MSFontService,sans-serif" font-weight="700" font-size="60" direction="rtl" writing-mode="rl-tb" transform="matrix(1 0 0 1 2060.16 1217)" x="76.7708">סגן</text><text font-family="Assistant,Assistant_MSFontService,sans-serif" font-weight="700" font-size="60" direction="rtl" writing-mode="rl-tb" transform="matrix(1 0 0 1 2048.13 1217)" x="12.0313"> </text><text font-family="Assistant,Assistant_MSFontService,sans-serif" font-weight="700" font-size="60" direction="rtl" writing-mode="rl-tb" transform="matrix(1 0 0 1 1909.49 1217)" x="138.646">מפקד</text><text font-family="Assistant,Assistant_MSFontService,sans-serif" font-weight="700" font-size="60" direction="rtl" writing-mode="rl-tb" transform="matrix(1 0 0 1 1897.45 1217)" x="12.0313"> </text><text font-family="Assistant,Assistant_MSFontService,sans-serif" font-weight="700" font-size="60" direction="rtl" writing-mode="rl-tb" transform="matrix(1 0 0 1 2073.06 1281)" x="74.4792">תא</text><text font-family="Assistant,Assistant_MSFontService,sans-serif" font-weight="700" font-size="60" direction="rtl" writing-mode="rl-tb" transform="matrix(1 0 0 1 2061.03 1281)" x="12.0313"> </text><text font-family="Assistant,Assistant_MSFontService,sans-serif" font-weight="700" font-size="60" direction="rtl" writing-mode="rl-tb" transform="matrix(1 0 0 1 1945.3 1281)" x="115.729">משא</text><text font-family="Assistant,Assistant_MSFontService,sans-serif" font-weight="700" font-size="60" transform="matrix(1 0 0 1 1914.39 1281)">"</text><text font-family="Assistant,Assistant_MSFontService,sans-serif" font-weight="700" font-size="60" direction="rtl" writing-mode="rl-tb" transform="matrix(1 0 0 1 1898.9 1281)" x="15.4688">ן</text><rect x="1870.5" y="1378.5" width="316" height="158" stroke="#000000" stroke-width="6.875" stroke-miterlimit="8" fill="#FFFFFF"/><text font-family="Assistant,Assistant_MSFontService,sans-serif" font-weight="700" font-size="60" direction="rtl" writing-mode="rl-tb" transform="matrix(1 0 0 1 2002.03 1441)" x="106.562">סמב</text><text font-family="Assistant,Assistant_MSFontService,sans-serif" font-weight="700" font-size="60" transform="matrix(1 0 0 1 1971.12 1441)">"</text><text font-family="Assistant,Assistant_MSFontService,sans-serif" font-weight="700" font-size="60" direction="rtl" writing-mode="rl-tb" transform="matrix(1 0 0 1 1937.87 1441)" x="33.2292">צ</text><text font-family="Assistant,Assistant_MSFontService,sans-serif" font-weight="700" font-size="60" direction="rtl" writing-mode="rl-tb" transform="matrix(1 0 0 1 1925.84 1441)" x="12.0313"> </text><text font-family="Assistant,Assistant_MSFontService,sans-serif" font-weight="700" font-size="60" direction="rtl" writing-mode="rl-tb" transform="matrix(1 0 0 1 2023.51 1505)" x="115.729">משא</text><text font-family="Assistant,Assistant_MSFontService,sans-serif" font-weight="700" font-size="60" transform="matrix(1 0 0 1 1992.59 1505)">"</text><text font-family="Assistant,Assistant_MSFontService,sans-serif" font-weight="700" font-size="60" direction="rtl" writing-mode="rl-tb" transform="matrix(1 0 0 1 1977.1 1505)" x="15.4688">ן</text><text font-family="Assistant,Assistant_MSFontService,sans-serif" font-weight="700" font-size="60" direction="rtl" writing-mode="rl-tb" transform="matrix(1 0 0 1 1965.07 1505)" x="12.0313"> </text><text font-family="Assistant,Assistant_MSFontService,sans-serif" font-weight="700" font-size="60" transform="matrix(1 0 0 1 1907.23 1505)">*</text><text font-family="Assistant,Assistant_MSFontService,sans-serif" font-weight="700" font-size="60" transform="matrix(1 0 0 1 1934.16 1505)">2</text><rect x="3342.5" y="740.5" width="316" height="157" stroke="#000000" stroke-width="6.875" stroke-linejoin="round" stroke-miterlimit="10" fill="#00B0F0"/><text font-family="Assistant,Assistant_MSFontService,sans-serif" font-weight="700" font-size="60" direction="rtl" writing-mode="rl-tb" transform="matrix(1 0 0 1 3536.8 803)" x="76.7708">סגן</text><text font-family="Assistant,Assistant_MSFontService,sans-serif" font-weight="700" font-size="60" direction="rtl" writing-mode="rl-tb" transform="matrix(1 0 0 1 3524.77 803)" x="12.0313"> </text><text font-family="Assistant,Assistant_MSFontService,sans-serif" font-weight="700" font-size="60" direction="rtl" writing-mode="rl-tb" transform="matrix(1 0 0 1 3386.12 803)" x="138.646">מפקד</text><text font-family="Assistant,Assistant_MSFontService,sans-serif" font-weight="700" font-size="60" direction="rtl" writing-mode="rl-tb" transform="matrix(1 0 0 1 3374.09 803)" x="12.0313"> </text><text font-family="Assistant,Assistant_MSFontService,sans-serif" font-weight="700" font-size="60" direction="rtl" writing-mode="rl-tb" transform="matrix(1 0 0 1 3485.24 867)" x="96.8229">מלכ</text><text font-family="Assistant,Assistant_MSFontService,sans-serif" font-weight="700" font-size="60" transform="matrix(1 0 0 1 3454.32 867)">"</text><text font-family="Assistant,Assistant_MSFontService,sans-serif" font-weight="700" font-size="60" direction="rtl" writing-mode="rl-tb" transform="matrix(1 0 0 1 3417.63 867)" x="36.6667">א</text><rect x="3140.5" y="1059.5" width="316" height="158" stroke="#000000" stroke-width="6.875" stroke-linejoin="round" stroke-miterlimit="10" fill="none"/><text font-family="Assistant,Assistant_MSFontService,sans-serif" font-weight="700" font-size="60" direction="rtl" writing-mode="rl-tb" transform="matrix(1 0 0 1 3312.06 1155)" x="105.417">קמב</text><text font-family="Assistant,Assistant_MSFontService,sans-serif" font-weight="700" font-size="60" transform="matrix(1 0 0 1 3281.14 1155)">"</text><text font-family="Assistant,Assistant_MSFontService,sans-serif" font-weight="700" font-size="60" direction="rtl" writing-mode="rl-tb" transform="matrix(1 0 0 1 3247.89 1155)" x="33.2292">צ</text><text font-family="Assistant,Assistant_MSFontService,sans-serif" font-weight="700" font-size="60" direction="rtl" writing-mode="rl-tb" transform="matrix(1 0 0 1 3235.86 1155)" x="12.0313"> </text><text font-family="Assistant,Assistant_MSFontService,sans-serif" font-weight="700" font-size="60" transform="matrix(1 0 0 1 3178.02 1155)">*</text><text font-family="Assistant,Assistant_MSFontService,sans-serif" font-weight="700" font-size="60" transform="matrix(1 0 0 1 3204.94 1155)">2</text><rect x="3595.5" y="1059.5" width="316" height="158" stroke="#000000" stroke-width="6.875" stroke-linejoin="round" stroke-miterlimit="10" fill="none"/><text font-family="Assistant,Assistant_MSFontService,sans-serif" font-weight="700" font-size="55" direction="rtl" writing-mode="rl-tb" transform="matrix(1 0 0 1 3733.98 1124)" x="98.5417">סמב</text><text font-family="Assistant,Assistant_MSFontService,sans-serif" font-weight="700" font-size="55" transform="matrix(1 0 0 1 3705.36 1124)">"</text><text font-family="Assistant,Assistant_MSFontService,sans-serif" font-weight="700" font-size="55" direction="rtl" writing-mode="rl-tb" transform="matrix(1 0 0 1 3674.4 1124)" x="30.9375">צ</text><text font-family="Assistant,Assistant_MSFontService,sans-serif" font-weight="700" font-size="55" direction="rtl" writing-mode="rl-tb" transform="matrix(1 0 0 1 3663.52 1124)" x="10.8854"> </text><text font-family="Assistant,Assistant_MSFontService,sans-serif" font-weight="700" font-size="55" direction="rtl" writing-mode="rl-tb" transform="matrix(1 0 0 1 3673.53 1183)" x="224.01">לוגיסטיקה</text><text font-family="Assistant,Assistant_MSFontService,sans-serif" font-weight="700" font-size="55" direction="rtl" writing-mode="rl-tb" transform="matrix(1 0 0 1 3662.64 1183)" x="10.8854"> </text><text font-family="Assistant,Assistant_MSFontService,sans-serif" font-weight="700" font-size="55" transform="matrix(1 0 0 1 3609.39 1183)">*</text><text font-family="Assistant,Assistant_MSFontService,sans-serif" font-weight="700" font-size="55" transform="matrix(1 0 0 1 3634.02 1183)">2</text><path d="M3754 1064.5 3754 957.5" stroke="#000000" stroke-width="6.875" stroke-miterlimit="8" fill="none" fill-rule="evenodd"/><path d="M3283 1059.5 3283 957.5" stroke="#000000" stroke-width="6.875" stroke-miterlimit="8" fill="none" fill-rule="evenodd"/><path d="M3489.5 700 2296.5 700" stroke="#000000" stroke-width="6.875" stroke-miterlimit="8" fill="none" fill-rule="evenodd"/><path d="M0 0 0 43.9358 102 43.9358 102 46.0001" stroke="#000000" stroke-width="6.875" stroke-miterlimit="8" fill="none" fill-rule="evenodd" transform="matrix(6.12323e-17 1 1 -6.12323e-17 3710.5 957.5)"/><path d="M0 0 0 34.3843 40.9999 34.3843 40.9999 35.9997" stroke="#000000" stroke-width="6.875" stroke-miterlimit="8" fill="none" fill-rule="evenodd" transform="matrix(6.12323e-17 1 1 -6.12323e-17 3453.5 699.5)"/><path d="M0 0 0 443.178 16.9998 443.178 16.9998 464" stroke="#000000" stroke-width="6.875" stroke-miterlimit="8" fill="none" fill-rule="evenodd" transform="matrix(6.12323e-17 1 1 -6.12323e-17 2362.5 910.5)"/><text font-family="Assistant,Assistant_MSFontService,sans-serif" font-weight="700" font-size="60" direction="rtl" writing-mode="rl-tb" transform="matrix(1 0 0 1 2800.87 1020)" x="69.3229">קה</text><text font-family="Assistant,Assistant_MSFontService,sans-serif" font-weight="700" font-size="60" transform="matrix(1 0 0 1 2769.95 1020)">"</text><text font-family="Assistant,Assistant_MSFontService,sans-serif" font-weight="700" font-size="60" direction="rtl" writing-mode="rl-tb" transform="matrix(1 0 0 1 2733.84 1020)" x="36.0938">ס</text><path d="M3507 897.5 3507 957.5" stroke="#000000" stroke-width="6.875" stroke-miterlimit="8" fill="none" fill-rule="evenodd"/></g></svg>